<?xml version="1.0" standalone="no"?>
<!DOCTYPE svg PUBLIC "-//W3C//DTD SVG 20010904//EN"
 "http://www.w3.org/TR/2001/REC-SVG-20010904/DTD/svg10.dtd">
<svg version="1.0" xmlns="http://www.w3.org/2000/svg"
 width="730.000000pt" height="730.000000pt" viewBox="0 0 730.000000 730.000000"
 preserveAspectRatio="xMidYMid meet">
<metadata>
Created by potrace 1.14, written by Peter Selinger 2001-2017
</metadata>
<g transform="translate(0.000000,730.000000) scale(0.100000,-0.100000)"
fill="#000000" stroke="none">
<path d="M2247 6818 c-63 -110 -159 -278 -247 -433 -54 -93 -323 -566 -600
-1050 -276 -484 -507 -886 -513 -893 -12 -15 -12 -340 -1 -1614 l7 -717 101
-59 c124 -72 335 -196 561 -329 94 -55 501 -295 905 -532 404 -238 788 -464
852 -503 65 -38 126 -68 135 -66 10 2 73 35 140 73 l122 70 1 1087 0 1087 101
178 c198 348 307 539 334 588 16 28 46 82 68 120 22 39 53 95 70 125 16 30 44
80 62 110 18 30 94 165 170 300 165 292 326 574 330 578 2 3 83 -44 705 -403
179 -103 353 -204 387 -224 l63 -36 0 -1082 c0 -596 2 -1083 4 -1083 3 0 64
34 135 76 l131 76 0 1142 0 1142 -52 30 c-108 62 -495 288 -873 509 -214 125
-498 291 -630 368 -132 77 -319 186 -415 242 -382 223 -748 436 -1015 590
-276 159 -532 308 -792 458 -73 42 -147 86 -165 97 -46 28 -54 26 -81 -22z"/>
<path d="M5145 3111 c-10 -10 -156 -97 -452 -269 l-163 -95 0 -744 0 -744 23
12 c12 6 96 55 187 109 91 53 225 132 298 175 l132 78 0 733 c0 404 0 737 1
741 1 12 -16 14 -26 4z"/>
</g>
</svg>
